<?xml version="1.0" encoding="UTF-8" standalone="no"?>
<!-- Created with Inkscape (http://www.inkscape.org/) -->

<svg
   xmlns:dc="http://purl.org/dc/elements/1.1/"
   xmlns:cc="http://creativecommons.org/ns#"
   xmlns:rdf="http://www.w3.org/1999/02/22-rdf-syntax-ns#"
   xmlns:svg="http://www.w3.org/2000/svg"
   xmlns="http://www.w3.org/2000/svg"
   xmlns:xlink="http://www.w3.org/1999/xlink"
   xmlns:sodipodi="http://sodipodi.sourceforge.net/DTD/sodipodi-0.dtd"
   xmlns:inkscape="http://www.inkscape.org/namespaces/inkscape"
   width="134.67732mm"
   height="109.08706mm"
   viewBox="0 0 134.67732 109.08706"
   version="1.1"
   id="svg8"
   inkscape:version="0.92.4 (5da689c313, 2019-01-14)"
   sodipodi:docname="jumping.svg">
  <defs
     id="defs2">
    <linearGradient
       inkscape:collect="always"
       id="linearGradient2162">
      <stop
         style="stop-color:#a7d7c5;stop-opacity:1;"
         offset="0"
         id="stop2158" />
      <stop
         style="stop-color:#a7d7c5;stop-opacity:0;"
         offset="1"
         id="stop2160" />
    </linearGradient>
    <linearGradient
       inkscape:collect="always"
       id="linearGradient2125">
      <stop
         style="stop-color:#a7d7c5;stop-opacity:1;"
         offset="0"
         id="stop2121" />
      <stop
         style="stop-color:#a7d7c5;stop-opacity:0;"
         offset="1"
         id="stop2123" />
    </linearGradient>
    <linearGradient
       inkscape:collect="always"
       id="linearGradient2106">
      <stop
         style="stop-color:#a7d7c5;stop-opacity:1;"
         offset="0"
         id="stop2102" />
      <stop
         style="stop-color:#a7d7c5;stop-opacity:0;"
         offset="1"
         id="stop2104" />
    </linearGradient>
    <linearGradient
       inkscape:collect="always"
       id="linearGradient2082">
      <stop
         style="stop-color:#74b49b;stop-opacity:1;"
         offset="0"
         id="stop2078" />
      <stop
         style="stop-color:#74b49b;stop-opacity:0;"
         offset="1"
         id="stop2080" />
    </linearGradient>
    <linearGradient
       inkscape:collect="always"
       id="linearGradient2056">
      <stop
         style="stop-color:#74b49b;stop-opacity:1;"
         offset="0"
         id="stop2052" />
      <stop
         style="stop-color:#74b49b;stop-opacity:0;"
         offset="1"
         id="stop2054" />
    </linearGradient>
    <linearGradient
       inkscape:collect="always"
       id="linearGradient1927">
      <stop
         style="stop-color:#84bfa8;stop-opacity:1;"
         offset="0"
         id="stop1923" />
      <stop
         style="stop-color:#84bfa8;stop-opacity:0;"
         offset="1"
         id="stop1925" />
    </linearGradient>
    <linearGradient
       inkscape:collect="always"
       id="linearGradient1909">
      <stop
         style="stop-color:#a7d7c5;stop-opacity:1;"
         offset="0"
         id="stop1905" />
      <stop
         style="stop-color:#a7d7c5;stop-opacity:0;"
         offset="1"
         id="stop1907" />
    </linearGradient>
    <linearGradient
       inkscape:collect="always"
       id="linearGradient1885">
      <stop
         style="stop-color:#99cdb9;stop-opacity:1;"
         offset="0"
         id="stop1881" />
      <stop
         style="stop-color:#99cdb9;stop-opacity:0;"
         offset="1"
         id="stop1883" />
    </linearGradient>
    <linearGradient
       inkscape:collect="always"
       id="linearGradient1877">
      <stop
         style="stop-color:#a7d7c5;stop-opacity:1;"
         offset="0"
         id="stop1873" />
      <stop
         style="stop-color:#a7d7c5;stop-opacity:0;"
         offset="1"
         id="stop1875" />
    </linearGradient>
    <linearGradient
       inkscape:collect="always"
       id="linearGradient1004">
      <stop
         style="stop-color:#f8c7c7;stop-opacity:1;"
         offset="0"
         id="stop1000" />
      <stop
         style="stop-color:#f8c7c7;stop-opacity:0;"
         offset="1"
         id="stop1002" />
    </linearGradient>
    <linearGradient
       inkscape:collect="always"
       id="linearGradient879">
      <stop
         style="stop-color:#ffaaa6;stop-opacity:1;"
         offset="0"
         id="stop875" />
      <stop
         style="stop-color:#ffaaa6;stop-opacity:0;"
         offset="1"
         id="stop877" />
    </linearGradient>
    <clipPath
       clipPathUnits="userSpaceOnUse"
       id="clipPath823">
      <rect
         y="57.341076"
         x="-182.20656"
         height="195.07976"
         width="347.02621"
         id="rect825"
         style="opacity:1;fill:#ffffff;fill-opacity:1;stroke:none;stroke-width:0.7209481;stroke-linecap:round;stroke-linejoin:round;stroke-miterlimit:4;stroke-dasharray:none;stroke-dashoffset:0;stroke-opacity:1" />
    </clipPath>
    <linearGradient
       inkscape:collect="always"
       xlink:href="#linearGradient879"
       id="linearGradient895"
       x1="33.337753"
       y1="155.44615"
       x2="19.227812"
       y2="162.60561"
       gradientUnits="userSpaceOnUse"
       gradientTransform="matrix(0.5604311,0,0,0.5604311,-117.18205,35.004003)" />
    <clipPath
       clipPathUnits="userSpaceOnUse"
       id="clipPath988">
      <path
         sodipodi:nodetypes="cccccccccccccccccc"
         inkscape:connector-curvature="0"
         id="path990"
         d="m 67.649148,171.92424 c 0,0 0.450993,12.77817 1.653646,44.34778 0,0 -4.660276,10.82386 -12.477509,24.80468 0,0 1.503312,3.60796 4.960937,4.66028 0,0 17.288116,-14.73248 20.144412,-27.66099 0,0 1.954308,-29.31463 1.653646,-42.0928 0,0 8.568891,6.61458 9.170218,15.93513 0,0 1.503314,22.39939 8.869552,19.0921 0,0 18.94176,-26.30801 18.79143,-41.94247 0,0 0.30067,-6.16359 -5.71259,-7.51658 0,0 -10.07221,-2.55563 -13.3795,-8.41856 0,0 -4.058948,-9.77154 -9.32055,-13.68016 0,0 -16.987451,-13.3795 -46.753079,-13.07883 l 8.84876,14.87661 c 0,0 4.981733,9.92807 -3.271803,17.30994 3.142268,6.74929 3.743594,12.76255 3.743594,12.76255 l 6.614584,-6.76492 c 6.16359,-3.00663 6.464252,7.36624 6.464252,7.36624 z"
         style="fill:#f4d7d7;stroke:none;stroke-width:0.26458332px;stroke-linecap:butt;stroke-linejoin:miter;stroke-opacity:1" />
    </clipPath>
    <clipPath
       clipPathUnits="userSpaceOnUse"
       id="clipPath1148">
      <path
         sodipodi:nodetypes="ccccccc"
         inkscape:connector-curvature="0"
         id="path1150"
         d="m 185.23792,199.27193 c 0,0 -1.57203,-4.4541 -9.95621,-6.28813 0,0 -6.81214,2.88206 -18.34039,26.72456 0,0 -28.29659,-24.36652 -42.18289,-49.51905 l -12.31426,31.70267 c 46.63699,44.80295 62.61933,35.10875 62.61933,35.10875 9.6942,-3.40607 20.17442,-37.7288 20.17442,-37.7288 z"
         style="fill:#d35f5f;fill-opacity:1;stroke:none;stroke-width:0.26458332px;stroke-linecap:butt;stroke-linejoin:miter;stroke-opacity:1" />
    </clipPath>
    <clipPath
       clipPathUnits="userSpaceOnUse"
       id="clipPath967">
      <path
         style="fill:url(#linearGradient971);fill-opacity:1;stroke:none;stroke-width:0.26458332px;stroke-linecap:butt;stroke-linejoin:miter;stroke-opacity:1"
         d="m 7.7453736,146.73897 c 10.5398044,-6.73288 19.0740604,-10.45653 19.0740604,-10.45653 4.578808,-0.79603 17.427141,-2.36471 17.427141,-2.36471 1.205963,-3.01742 0.272529,-4.18124 0.272529,-4.18124 -10.876098,-1.31362 -20.068063,1.13216 -20.068063,1.13216 -10.334721,2.33724 -19.276829,8.37572 -19.276829,8.37572 z"
         id="path969"
         inkscape:connector-curvature="0" />
    </clipPath>
    <linearGradient
       inkscape:collect="always"
       xlink:href="#linearGradient1004"
       id="linearGradient971"
       gradientUnits="userSpaceOnUse"
       x1="19.277885"
       y1="134.93225"
       x2="44.519104"
       y2="129.7365" />
    <clipPath
       clipPathUnits="userSpaceOnUse"
       id="clipPath983">
      <path
         sodipodi:nodetypes="cccccccccccccccccc"
         inkscape:connector-curvature="0"
         id="path985"
         d="m 9.5081294,161.05695 c 0,0 0.2286002,6.477 0.8382006,22.47899 0,0 -2.9868382,4.91854 -6.9492364,12.00514 0,0 1.3866382,2.39665 3.1392379,2.93005 0,0 8.7629955,-7.46759 10.2107945,-14.02079 0,0 0.9906,-14.859 0.8382,-21.33599 0,0 4.343398,3.3528 4.648198,8.07719 0,0 0.761999,11.3538 4.495796,9.6774 0,0 9.601194,-13.33499 9.524997,-21.25979 0,0 0.152403,-3.1242 -2.895597,-3.81 0,0 -5.1054,-1.2954 -6.781798,-4.2672 0,0 -2.057399,-4.95299 -4.724398,-6.93419 0,0 -8.610596,-6.7818 -23.69819,-6.6294 l 4.4852568,7.54066 c 0,0 2.5251402,5.03233 -1.65841068,8.77405 1.59275308,3.42108 1.89755238,6.46908 1.89755238,6.46908 l 3.352799,-3.429 c 3.1241984,-1.524 3.2765979,3.7338 3.2765979,3.7338 z"
         style="fill:#f4d7d7;stroke:none;stroke-width:0.13411193px;stroke-linecap:butt;stroke-linejoin:miter;stroke-opacity:1" />
    </clipPath>
    <clipPath
       clipPathUnits="userSpaceOnUse"
       id="clipPath928">
      <path
         clip-path="url(#clipPath823)"
         inkscape:connector-curvature="0"
         id="path930"
         d="M 10.745422,34.71401 V 269.15959 H 177.7879 V 36.179294 Z"
         style="fill:#ff5555;stroke:none;stroke-width:0.26458332px;stroke-linecap:butt;stroke-linejoin:miter;stroke-opacity:1" />
    </clipPath>
    <clipPath
       clipPathUnits="userSpaceOnUse"
       id="clipPath1287">
      <path
         sodipodi:nodetypes="ccccccccc"
         inkscape:connector-curvature="0"
         id="path1289"
         d="m 65.121967,165.80793 c 0.0097,-0.8684 0.630285,-1.55273 0.630285,-1.55273 0.444183,-0.85931 0.510863,-2.60339 0.510863,-2.60339 0.520547,-3.32433 4.706694,-0.39828 4.706694,-0.39828 2.127663,1.57165 5.0745,1.20743 5.0745,1.20743 3.620455,-0.0523 4.320947,4.70168 4.320947,4.70168 -2.091113,2.14953 -4.813522,-0.2377 -4.813522,-0.2377 -1.813272,-0.28393 -4.864434,1.40566 -4.864434,1.40566 -1.792829,-5.02827 -5.565333,-2.52267 -5.565333,-2.52267 z"
         style="fill:#d35f5f;fill-opacity:1;stroke:none;stroke-width:0.08036587px;stroke-linecap:butt;stroke-linejoin:miter;stroke-opacity:1" />
    </clipPath>
    <clipPath
       clipPathUnits="userSpaceOnUse"
       id="clipPath1297">
      <path
         inkscape:connector-curvature="0"
         id="path1299"
         d="m -25.58189,215.56432 c -2.550552,-0.31881 -3.507008,-1.7535 -3.507008,-1.7535 -1.434684,-1.27527 -4.463462,-0.23912 -4.463462,-0.23912 -2.152028,0.87676 -4.463463,0.47823 -4.463463,0.47823 -2.869369,-0.31881 -3.427304,1.5941 -3.427304,1.5941 0.398524,1.6738 7.731358,3.98524 7.731358,3.98524 1.594093,0.47823 4.224348,2.31143 4.224348,2.31143 1.594094,1.03616 3.028778,-2.86937 3.028778,-2.86937 0.876753,-2.39114 1.992618,-2.86937 1.992618,-2.86937 0.318819,-0.55793 -1.115865,-0.63764 -1.115865,-0.63764 z"
         style="fill:#d35f5f;stroke:none;stroke-width:0.08439008px;stroke-linecap:butt;stroke-linejoin:miter;stroke-opacity:1" />
    </clipPath>
    <clipPath
       clipPathUnits="userSpaceOnUse"
       id="clipPath1325">
      <path
         sodipodi:nodetypes="ccccccc"
         inkscape:connector-curvature="0"
         id="path1327"
         d="m 70.022937,169.4503 c 0,0 -0.79683,-2.25769 -5.046602,-3.18733 0,0 -3.452934,1.46086 -9.296371,13.54614 0,0 -14.342969,-12.35089 -21.381653,-25.1002 l -6.241849,16.06944 c 23.639346,22.70971 31.740469,17.79592 31.740469,17.79592 4.913794,-1.72647 10.226006,-19.12397 10.226006,-19.12397 z"
         style="fill:#d35f5f;fill-opacity:1;stroke:none;stroke-width:0.13411193px;stroke-linecap:butt;stroke-linejoin:miter;stroke-opacity:1" />
    </clipPath>
    <clipPath
       clipPathUnits="userSpaceOnUse"
       id="clipPath1333">
      <path
         style="fill:#d35f5f;fill-opacity:1;stroke:none;stroke-width:0.13411193px;stroke-linecap:butt;stroke-linejoin:miter;stroke-opacity:1"
         d="m 17.873698,154.73705 c -23.2315063,14.51968 -23.5944977,17.42362 -23.5944977,17.42362 -2.5409461,3.62993 -4.8398983,11.13177 -4.8398983,11.13177 -3.508925,9.1958 -13.430714,22.74752 -13.430714,22.74752 -3.266931,3.75092 -5.444886,6.04987 -5.444886,6.04987 1.693966,0.60498 5.807878,3.26693 5.807878,3.26693 4.834879,-7.02287 11.494756,-11.97875 11.494756,-11.97875 4.7475226,-3.45521 8.2127697,-11.4074 8.2127697,-11.4074 7.3743365,-12.44117 15.1786633,-13.90331 15.1786633,-13.90331 9.640865,-8.32657 14.722758,-9.77855 14.722758,-9.77855 l -2.661944,-13.18871 z"
         id="path1335"
         inkscape:connector-curvature="0"
         sodipodi:nodetypes="cccccccccccc" />
    </clipPath>
    <clipPath
       clipPathUnits="userSpaceOnUse"
       id="clipPath1341">
      <path
         style="fill:#d35f5f;fill-opacity:1;stroke:none;stroke-width:0.13411193px;stroke-linecap:butt;stroke-linejoin:miter;stroke-opacity:1"
         d="m 17.873698,154.73705 c -23.2315063,14.51968 -23.5944977,17.42362 -23.5944977,17.42362 -2.5409461,3.62993 -4.8398983,11.13177 -4.8398983,11.13177 -3.508925,9.1958 -13.430714,22.74752 -13.430714,22.74752 -3.266931,3.75092 -5.444886,6.04987 -5.444886,6.04987 1.693966,0.60498 5.807878,3.26693 5.807878,3.26693 4.834879,-7.02287 11.494756,-11.97875 11.494756,-11.97875 4.7475226,-3.45521 8.2127697,-11.4074 8.2127697,-11.4074 7.3743365,-12.44117 15.1786633,-13.90331 15.1786633,-13.90331 9.640865,-8.32657 14.722758,-9.77855 14.722758,-9.77855 l -2.661944,-13.18871 z"
         id="path1343"
         inkscape:connector-curvature="0"
         sodipodi:nodetypes="cccccccccccc" />
    </clipPath>
    <linearGradient
       inkscape:collect="always"
       xlink:href="#linearGradient1877"
       id="linearGradient1879"
       x1="156.94132"
       y1="200.58196"
       x2="181.04584"
       y2="200.58196"
       gradientUnits="userSpaceOnUse" />
    <linearGradient
       inkscape:collect="always"
       xlink:href="#linearGradient1885"
       id="linearGradient1887"
       x1="-29.436298"
       y1="190.80159"
       x2="-3.3419444"
       y2="190.80159"
       gradientUnits="userSpaceOnUse" />
    <linearGradient
       inkscape:collect="always"
       xlink:href="#linearGradient1909"
       id="linearGradient1911"
       x1="28.056462"
       y1="174.0948"
       x2="55.544619"
       y2="174.0948"
       gradientUnits="userSpaceOnUse" />
    <linearGradient
       inkscape:collect="always"
       xlink:href="#linearGradient1927"
       id="linearGradient1929"
       x1="29.550831"
       y1="157.04173"
       x2="6.7368522"
       y2="184.9119"
       gradientUnits="userSpaceOnUse" />
    <linearGradient
       inkscape:collect="always"
       xlink:href="#linearGradient2056"
       id="linearGradient2058"
       x1="59.05415"
       y1="154.58383"
       x2="48.594616"
       y2="161.35916"
       gradientUnits="userSpaceOnUse" />
    <linearGradient
       inkscape:collect="always"
       xlink:href="#linearGradient2082"
       id="linearGradient2084"
       x1="-116.0295"
       y1="107.12543"
       x2="-85.312096"
       y2="108.80717"
       gradientUnits="userSpaceOnUse" />
    <linearGradient
       inkscape:collect="always"
       xlink:href="#linearGradient2106"
       id="linearGradient2108"
       x1="-64.964493"
       y1="114.72165"
       x2="-90.506989"
       y2="122.13505"
       gradientUnits="userSpaceOnUse" />
    <linearGradient
       inkscape:collect="always"
       xlink:href="#linearGradient2125"
       id="linearGradient2127"
       x1="-79.853378"
       y1="166.48395"
       x2="-90.299843"
       y2="180.69714"
       gradientUnits="userSpaceOnUse" />
    <linearGradient
       inkscape:collect="always"
       xlink:href="#linearGradient2162"
       id="linearGradient2164"
       x1="-41.994194"
       y1="101.14665"
       x2="-31.90398"
       y2="101.14665"
       gradientUnits="userSpaceOnUse" />
  </defs>
  <sodipodi:namedview
     id="base"
     pagecolor="#ffffff"
     bordercolor="#666666"
     borderopacity="1.0"
     inkscape:pageopacity="0.0"
     inkscape:pageshadow="2"
     inkscape:zoom="0.53934886"
     inkscape:cx="251.74831"
     inkscape:cy="335.33731"
     inkscape:document-units="mm"
     inkscape:current-layer="layer1"
     showgrid="false"
     showguides="false"
     inkscape:window-width="1366"
     inkscape:window-height="686"
     inkscape:window-x="0"
     inkscape:window-y="27"
     inkscape:window-maximized="1"
     fit-margin-top="0"
     fit-margin-left="0"
     fit-margin-right="0"
     fit-margin-bottom="0" />
  <metadata
     id="metadata5">
    <rdf:RDF>
      <cc:Work
         rdf:about="">
        <dc:format>image/svg+xml</dc:format>
        <dc:type
           rdf:resource="http://purl.org/dc/dcmitype/StillImage" />
        <dc:title />
      </cc:Work>
    </rdf:RDF>
  </metadata>
  <g
     inkscape:label="Layer 1"
     inkscape:groupmode="layer"
     id="layer1"
     transform="translate(137.86224,-97.393024)">
    <flowRoot
       xml:space="preserve"
       id="flowRoot1169"
       style="font-style:normal;font-variant:normal;font-weight:bold;font-stretch:normal;font-size:40px;line-height:1.25;font-family:sans-serif;-inkscape-font-specification:'sans-serif Bold';letter-spacing:1px;word-spacing:0px;fill:#000000;fill-opacity:1;stroke:none"
       transform="scale(0.26458333)"><flowRegion
         id="flowRegion1171"><rect
           id="rect1173"
           width="161.40398"
           height="62.202198"
           x="-331.9238"
           y="613.1051" /></flowRegion><flowPara
         id="flowPara1175" /></flowRoot>    <g
       id="g2318">
      <g
         id="g2271">
        <g
           id="g2225">
          <path
             inkscape:connector-curvature="0"
             id="path1140"
             d="m -89.948119,125.43469 c -2.258664,8.54923 -10.486491,10.99188 -10.486491,10.99188 -7.71359,1.41416 -0.77136,4.88527 -0.77136,4.88527 5.785191,3.8568 14.270142,2.95687 14.270142,2.95687 0,0 11.056146,-5.39951 10.927587,-5.91375 -0.12856,-0.51423 -0.25712,-10.67046 -0.25712,-10.67046 z"
             style="fill:#a7d7c5;stroke:none;stroke-width:0.14828071px;stroke-linecap:butt;stroke-linejoin:miter;stroke-opacity:1;fill-opacity:1" />
          <path
             inkscape:connector-curvature="0"
             id="path1170"
             d="m -20.199671,144.72665 0.857891,-1.92332 4.248192,-3.55722 3.591185,4.08651 -1.400741,2.07646 -1.716758,2.84164 -3.693369,-0.76966 z"
             style="fill:#f4d7d7;stroke:none;stroke-width:0.14828071px;stroke-linecap:butt;stroke-linejoin:miter;stroke-opacity:1" />
          <path
             sodipodi:nodetypes="cccccc"
             inkscape:connector-curvature="0"
             id="path1162"
             d="m -127.53612,199.84072 4.43202,-4.74221 5.65144,1.19975 -3.16918,3.82807 -3.13298,2.33405 z"
             style="fill:#f4d7d7;stroke:none;stroke-width:0.14828071px;stroke-linecap:butt;stroke-linejoin:miter;stroke-opacity:1" />
          <path
             style="fill:#ffd3b5;fill-opacity:1;stroke:none;stroke-width:0.20991755px;stroke-linecap:butt;stroke-linejoin:miter;stroke-opacity:1"
             d="m -40.356556,102.91778 c 2.673797,0.7525 3.914154,1.82374 3.914154,1.82374 1.54549,0.2902 3.644833,-0.16415 3.644833,-0.16415 1.298413,-0.1907 0.799297,-4.583401 0.799297,-4.583401 -1.376332,-2.742749 -2.99478,-2.535477 -2.99478,-2.535477 -2.709589,2.016421 -5.450186,1.766608 -5.450186,1.766608 l -1.550956,2.22477 z"
             id="path1029"
             inkscape:connector-curvature="0" />
          <path
             inkscape:connector-curvature="0"
             id="path2148"
             d="m -40.356556,102.91778 c 2.673797,0.7525 3.914154,1.82374 3.914154,1.82374 1.54549,0.2902 3.644833,-0.16415 3.644833,-0.16415 1.298413,-0.1907 0.799297,-4.583401 0.799297,-4.583401 -1.376332,-2.742749 -2.99478,-2.535477 -2.99478,-2.535477 -2.709589,2.016421 -5.450186,1.766608 -5.450186,1.766608 l -1.550956,2.22477 z"
             style="fill:url(#linearGradient2164);fill-opacity:1;stroke:none;stroke-width:0.20991755px;stroke-linecap:butt;stroke-linejoin:miter;stroke-opacity:1" />
          <path
             style="fill:#5c8d89;fill-opacity:1;stroke:none;stroke-width:0.14828071px;stroke-linecap:butt;stroke-linejoin:miter;stroke-opacity:1"
             d="m -42.111782,102.91779 c 2.361371,0.0102 1.755226,-1e-5 1.755226,-1e-5 l 0.679234,-4.305089 -2.133133,-0.317888 z"
             id="path1033"
             inkscape:connector-curvature="0"
             sodipodi:nodetypes="ccccc" />
          <path
             inkscape:connector-curvature="0"
             id="path939"
             d="m -82.469295,117.09357 c 11.653323,-7.44421 21.089214,-11.56126 21.089214,-11.56126 5.062557,-0.88013 19.268301,-2.61454 19.268301,-2.61454 1.333373,-3.336203 0.301321,-4.62298 0.301321,-4.62298 -12.025144,-1.452403 -22.188232,1.251772 -22.188232,1.251772 -11.426574,2.584168 -21.313407,9.260608 -21.313407,9.260608 z"
             style="fill:#f4f9f4;fill-opacity:1;stroke:none;stroke-width:0.29253629px;stroke-linecap:butt;stroke-linejoin:miter;stroke-opacity:1" />
          <path
             transform="matrix(1.105649,0,0,1.105649,-91.03296,-45.148226)"
             clip-path="url(#clipPath967)"
             inkscape:connector-curvature="0"
             id="path961"
             d="M 8.1784964,140.85748 C 22.365684,130.84299 46.40045,130.59263 46.40045,130.59263 l -0.584179,-2.58708 -29.960002,0.25036 -8.7626751,4.75688 -2.3367132,8.09505 z"
             style="opacity:0.28999999;fill:#a7d7c5;stroke:none;stroke-width:0.26458332px;stroke-linecap:butt;stroke-linejoin:miter;stroke-opacity:1;fill-opacity:1" />
          <path
             sodipodi:nodetypes="cccccccccccc"
             inkscape:connector-curvature="0"
             id="path1112"
             d="m -72.278656,131.98303 c -25.685891,16.05367 -26.087232,19.26441 -26.087232,19.26441 -2.809392,4.01343 -5.351232,12.30783 -5.351232,12.30783 -3.87964,10.16733 -14.84965,25.15077 -14.84965,25.15077 -3.61208,4.1472 -6.02013,6.68903 -6.02013,6.68903 1.87293,0.6689 6.42147,3.61208 6.42147,3.61208 5.34568,-7.76483 12.70916,-13.24429 12.70916,-13.24429 5.2491,-3.82025 9.080445,-12.61258 9.080445,-12.61258 8.153428,-13.75557 16.782274,-15.37218 16.782274,-15.37218 10.659413,-9.20627 16.278203,-10.81165 16.278203,-10.81165 l -2.943176,-14.58208 z"
             style="fill:#d35f5f;fill-opacity:1;stroke:none;stroke-width:0.14828071px;stroke-linecap:butt;stroke-linejoin:miter;stroke-opacity:1" />
          <path
             sodipodi:nodetypes="ccccccc"
             inkscape:connector-curvature="0"
             id="path1142"
             d="m -14.619902,148.25072 c 0,0 -0.881014,-2.49621 -5.579769,-3.52407 0,0 -3.817735,1.6152 -10.278524,14.97728 0,0 -15.85829,-13.65575 -23.640605,-27.75201 l -6.901294,17.76716 c 26.13682,25.10897 35.09382,19.67604 35.09382,19.67604 5.432931,-1.90887 11.306372,-21.1444 11.306372,-21.1444 z"
             style="fill:#5c8d89;fill-opacity:1;stroke:none;stroke-width:0.14828071px;stroke-linecap:butt;stroke-linejoin:miter;stroke-opacity:1" />
          <path
             transform="matrix(1.105649,0,0,1.105649,-92.040692,-39.101834)"
             clip-path="url(#clipPath1325)"
             inkscape:connector-curvature="0"
             id="path1321"
             d="m 31.132417,163.9672 c 11.383219,24.54935 24.412202,26.60656 24.412202,26.60656 l -28.800914,-6.58306 -2.605796,-8.91457 3.017239,-15.90908 z"
             style="opacity:0.35;fill:url(#linearGradient1911);stroke:none;stroke-width:0.26458332px;stroke-linecap:butt;stroke-linejoin:miter;stroke-opacity:1;fill-opacity:1" />
          <path
             inkscape:connector-curvature="0"
             id="path1174"
             d="m -87.655466,172.24629 c -2.19996,1.69577 -3.799848,2.05129 -3.799848,2.05129 -1.155475,1.0666 -2.044303,3.02202 -2.044303,3.02202 -0.622179,1.15548 3.199777,3.37754 3.199777,3.37754 3.022013,0.5333 3.821957,-0.88882 3.821957,-0.88882 0,-3.37754 1.836567,-5.42701 1.836567,-5.42701 l -0.858857,-2.57243 z"
             style="fill:#ffd3b5;fill-opacity:1;stroke:none;stroke-width:0.20991755px;stroke-linecap:butt;stroke-linejoin:miter;stroke-opacity:1" />
          <path
             style="fill:url(#linearGradient2127);fill-opacity:1;stroke:none;stroke-width:0.20991755px;stroke-linecap:butt;stroke-linejoin:miter;stroke-opacity:1"
             d="m -87.655466,172.24629 c -2.19996,1.69577 -3.799848,2.05129 -3.799848,2.05129 -1.155475,1.0666 -2.044303,3.02202 -2.044303,3.02202 -0.622179,1.15548 3.199777,3.37754 3.199777,3.37754 3.022013,0.5333 3.821957,-0.88882 3.821957,-0.88882 0,-3.37754 1.836567,-5.42701 1.836567,-5.42701 l -0.858857,-2.57243 z"
             id="path1184"
             inkscape:connector-curvature="0" />
          <path
             sodipodi:nodetypes="ccccc"
             inkscape:connector-curvature="0"
             id="path1172"
             d="m -87.276967,171.05157 c -1.417943,1.88829 -1.22338,1.6391 -1.22338,1.6391 l 3.573169,2.32432 1.71423,-1.31693 z"
             style="fill:#5c8d89;fill-opacity:1;stroke:none;stroke-width:0.14828071px;stroke-linecap:butt;stroke-linejoin:miter;stroke-opacity:1" />
          <path
             style="fill:#5c8d89;fill-opacity:1;stroke:none;stroke-width:0.14828071px;stroke-linecap:butt;stroke-linejoin:miter;stroke-opacity:1"
             d="m -72.278656,131.98303 c -25.685891,16.05367 -26.087232,19.26441 -26.087232,19.26441 -2.809392,4.01343 -5.351232,12.30783 -5.351232,12.30783 -3.87964,10.16733 -14.84965,25.15077 -14.84965,25.15077 -3.61208,4.1472 -6.02013,6.68903 -6.02013,6.68903 1.87293,0.6689 6.42147,3.61208 6.42147,3.61208 5.34568,-7.76483 12.70916,-13.24429 12.70916,-13.24429 5.2491,-3.82025 9.080445,-12.61258 9.080445,-12.61258 8.153428,-13.75557 16.782274,-15.37218 16.782274,-15.37218 10.659413,-9.20627 16.278203,-10.81165 16.278203,-10.81165 l -2.943176,-14.58208 z"
             id="path1215"
             inkscape:connector-curvature="0"
             sodipodi:nodetypes="cccccccccccc" />
          <path
             transform="matrix(1.105649,0,0,1.105649,-92.040692,-39.101834)"
             clip-path="url(#clipPath1333)"
             inkscape:connector-curvature="0"
             id="path1329"
             d="M 34.29831,154.70891 C -3.4286803,178.36766 -6.1716245,198.93974 -6.1716245,198.93974 L 17.280548,194.41388 26.743705,183.9907 Z"
             style="fill:url(#linearGradient1929);fill-opacity:1;stroke:none;stroke-width:0.26458332px;stroke-linecap:butt;stroke-linejoin:miter;stroke-opacity:1;opacity:0.82000004" />
          <path
             sodipodi:nodetypes="cccccccccccccccccc"
             inkscape:connector-curvature="0"
             id="path923"
             d="m -80.520306,132.92423 c 0,0 0.252751,7.16128 0.926755,24.85387 0,0 -3.302394,5.43818 -7.683416,13.27347 0,0 1.533135,2.64985 3.470895,3.23961 0,0 9.688797,-8.25654 11.289555,-15.50208 0,0 1.095256,-16.42883 0.926755,-23.59011 0,0 4.802273,3.70702 5.139275,8.93053 0,0 0.842504,12.55332 4.970773,10.69981 0,0 10.615551,-14.74382 10.531302,-23.50586 0,0 0.168504,-3.45427 -3.201514,-4.21253 0,0 -5.644779,-1.43225 -7.498287,-4.71802 0,0 -2.274761,-5.47627 -5.223526,-7.66678 0,0 -9.520297,-7.49829 -26.20188,-7.32979 l 4.95912,8.33732 c 0,0 2.791919,5.56399 -1.83362,9.70102 1.761026,3.78252 2.098027,7.15253 2.098027,7.15253 l 3.707019,-3.79127 c 3.454266,-1.68501 3.622767,4.12828 3.622767,4.12828 z"
             style="fill:#f4f9f4;stroke:none;stroke-width:0.14828071px;stroke-linecap:butt;stroke-linejoin:miter;stroke-opacity:1;fill-opacity:1" />
          <path
             transform="matrix(0.5604311,0,0,0.5604311,-118.43299,36.572537)"
             clip-path="url(#clipPath988)"
             inkscape:connector-curvature="0"
             id="path984"
             d="m 148.09975,164.09657 c -35.80151,7.46938 -56.40669,-7.98451 -56.40669,-7.98451 -5.666424,-3.86347 -7.211812,-11.84797 -7.211812,-11.84797 C 79.072387,129.84046 45.249761,126.37382 45.249761,126.37382 L 44.816272,90.433047 155.56913,110.00797 Z"
             style="opacity:0.68000034;fill:#a7d7c5;fill-opacity:1;stroke:none;stroke-width:0.26458332px;stroke-linecap:butt;stroke-linejoin:miter;stroke-opacity:1" />
          <path
             sodipodi:nodetypes="cccccccc"
             inkscape:connector-curvature="0"
             id="path976"
             d="m -89.948119,125.43469 c 3.750589,-3.22417 2.358505,-8.15264 2.358505,-8.15264 5.464224,-3.9946 9.215827,0.98167 9.215827,0.98167 l 0.312692,4.31122 -5.367016,6.82804 -3.816546,0.0894 -2.295891,-2.35553 z"
             style="opacity:0.35;fill:#a7d7c5;stroke:none;stroke-width:0.14828071px;stroke-linecap:butt;stroke-linejoin:miter;stroke-opacity:1;fill-opacity:1" />
          <path
             inkscape:connector-curvature="0"
             id="path883"
             d="m -105.16429,123.52634 c 4.30109,2.15055 5.186615,4.13243 5.186615,4.13243 l 3.33124,-5.48179 -0.843353,-1.89754 -5.608292,-0.16867 z"
             style="fill:#ffe6d5;stroke:none;stroke-width:0.14828072px;stroke-linecap:butt;stroke-linejoin:miter;stroke-opacity:1" />
          <path
             style="fill:url(#linearGradient895);fill-opacity:1;stroke:none;stroke-width:0.14828072px;stroke-linecap:butt;stroke-linejoin:miter;stroke-opacity:1"
             d="m -105.16429,123.52634 c 4.30109,2.15055 5.186615,4.13243 5.186615,4.13243 l 3.33124,-5.48179 -0.843353,-1.89754 -5.608292,-0.16867 z"
             id="path885"
             inkscape:connector-curvature="0" />
          <path
             sodipodi:nodetypes="ccccccccccccc"
             inkscape:connector-curvature="0"
             id="path827"
             d="m -108.36905,112.84992 c 3.61962,3.61962 1.8885,9.12774 1.8885,9.12774 -0.78688,4.09176 5.82287,0.15738 5.82287,0.15738 3.934379,-1.41637 0.6295,4.87862 0.6295,4.87862 -1.41637,2.99013 4.337841,-0.50068 4.337841,-0.50068 2.085975,-1.23895 3.688288,-3.74844 3.688288,-3.74844 1.029771,-1.45529 3.304874,1.10163 3.304874,1.10163 5.350751,-4.72126 2.975817,-7.46741 2.975817,-7.46741 l -0.429958,-0.97513 -2.231108,-4.14747 -6.767125,-2.99012 -6.137629,0.94425 z"
             style="fill:#ffd3b5;fill-opacity:1;stroke:none;stroke-width:0.14828072px;stroke-linecap:butt;stroke-linejoin:miter;stroke-opacity:0" />
          <g
             style="fill:#d9ede4;fill-opacity:1"
             transform="matrix(0.5604311,0,0,0.5604311,-117.18205,35.004003)"
             id="g1010">
            <path
               style="fill:#d9ede4;fill-opacity:1;stroke:none;stroke-width:0.26458332px;stroke-linecap:butt;stroke-linejoin:miter;stroke-opacity:1"
               d="m 47.597395,155.47146 c -1.544457,8.28391 -3.088915,11.93445 -3.088915,11.93445 6.864923,-4.34062 7.384721,-10.49156 7.384721,-10.49156 z"
               id="path937"
               inkscape:connector-curvature="0" />
            <path
               inkscape:connector-curvature="0"
               id="path956"
               d="m 47.597395,155.47146 c -1.544457,8.28391 -3.088915,11.93445 -3.088915,11.93445 6.864923,-4.34062 7.384721,-10.49156 7.384721,-10.49156 z"
               style="fill:#d9ede4;fill-opacity:1;stroke:none;stroke-width:0.26458332px;stroke-linecap:butt;stroke-linejoin:miter;stroke-opacity:1" />
          </g>
          <g
             id="g2050"
             transform="matrix(0.5604311,0,0,0.5604311,-117.18205,35.004003)"
             style="fill:url(#linearGradient2058);fill-opacity:1">
            <path
               inkscape:connector-curvature="0"
               id="path2046"
               d="m 47.597395,155.47146 c -1.544457,8.28391 -3.088915,11.93445 -3.088915,11.93445 6.864923,-4.34062 7.384721,-10.49156 7.384721,-10.49156 z"
               style="fill:url(#linearGradient2058);fill-opacity:1;stroke:none;stroke-width:0.26458332px;stroke-linecap:butt;stroke-linejoin:miter;stroke-opacity:1" />
            <path
               style="fill:url(#linearGradient2058);fill-opacity:1;stroke:none;stroke-width:0.26458332px;stroke-linecap:butt;stroke-linejoin:miter;stroke-opacity:1"
               d="m 47.597395,155.47146 c -1.544457,8.28391 -3.088915,11.93445 -3.088915,11.93445 6.864923,-4.34062 7.384721,-10.49156 7.384721,-10.49156 z"
               id="path2048"
               inkscape:connector-curvature="0" />
          </g>
          <path
             style="fill:url(#linearGradient2108);fill-opacity:1;stroke:none;stroke-width:0.14828072px;stroke-linecap:butt;stroke-linejoin:miter;stroke-opacity:0"
             d="m -108.36905,112.84992 c 3.61962,3.61962 1.8885,9.12774 1.8885,9.12774 -0.78688,4.09176 5.82287,0.15738 5.82287,0.15738 3.934379,-1.41637 0.6295,4.87862 0.6295,4.87862 -1.41637,2.99013 4.337841,-0.50068 4.337841,-0.50068 2.085975,-1.23895 3.688288,-3.74844 3.688288,-3.74844 1.029771,-1.45529 3.304874,1.10163 3.304874,1.10163 5.350751,-4.72126 2.975817,-7.46741 2.975817,-7.46741 l -0.429958,-0.97513 -2.231108,-4.14747 -6.767125,-2.99012 -6.137629,0.94425 z"
             id="path865"
             inkscape:connector-curvature="0"
             sodipodi:nodetypes="ccccccccccccc" />
          <path
             sodipodi:nodetypes="ccccccccccccccc"
             inkscape:connector-curvature="0"
             id="path845"
             d="m -86.863556,114.16514 c 0,0 -2.066212,0 -5.017943,-1.09636 0,0 -0.590346,0.67468 0.337341,1.6867 0,0 0.253005,1.26503 -1.475866,1.1807 0,0 -1.855374,-0.84336 -1.518033,-3.79508 0,0 0.04217,-0.29518 -1.644535,-0.84336 0,0 -2.066212,-0.67468 -3.078234,0.21084 0,0 -1.265024,2.27705 -9.108224,1.34134 -6.40945,-1.76301 -6.15644,-5.85327 -6.15644,-5.85327 0,-2.78306 4.30109,-2.10838 4.30109,-2.10838 4.80711,-0.29517 8.13835,-2.86739 8.13835,-2.86739 3.41557,-2.277053 7.505825,-0.42168 7.505825,-0.42168 0.337341,0.1265 1.981877,0.84335 1.981877,0.84335 4.132423,-0.46384 5.017943,2.78306 5.017943,2.78306 2.993898,4.04809 0.716849,8.93953 0.716849,8.93953 z"
             style="fill:#5c8d89;fill-opacity:1;stroke:none;stroke-width:0.14828072px;stroke-linecap:butt;stroke-linejoin:miter;stroke-opacity:1" />
          <path
             transform="matrix(1.105649,0,0,1.105649,-91.03296,-45.148226)"
             clip-path="url(#clipPath983)"
             sodipodi:nodetypes="ccccccc"
             inkscape:connector-curvature="0"
             id="path973"
             d="m 11.732354,151.69658 c 2.450638,24.5142 1.82721,31.99534 1.82721,31.99534 -2.026142,4.83157 -10.5048027,12.92972 -10.5048027,12.92972 l -1.6520478,-5.29272 4.6757116,-10.44243 0.7997511,-23.01432 z"
             style="opacity:0.47999998;fill:#a7d7c5;fill-opacity:1;stroke:none;stroke-width:0.26458332px;stroke-linecap:butt;stroke-linejoin:miter;stroke-opacity:1" />
          <g
             style="fill:#74b49b;fill-opacity:1"
             transform="matrix(0.5604311,0,0,0.5604311,-118.43299,36.572537)"
             id="g954">
            <g
               style="fill:#74b49b;fill-opacity:1"
               id="g948">
              <g
                 style="fill:#74b49b;fill-opacity:1"
                 id="g943">
                <path
                   style="fill:#74b49b;stroke:none;stroke-width:0.26458332px;stroke-linecap:butt;stroke-linejoin:miter;stroke-opacity:1;fill-opacity:1"
                   d="m 50.826718,158.56037 c 5.69987,10.20434 12.526488,1.95184 12.526488,1.95184 5.417376,-7.67461 8.126064,-14.7473 8.126064,-14.7473 2.733122,-5.93527 23.926745,-6.32027 23.926745,-6.32027 2.558205,-0.30096 7.825095,2.55821 7.825095,2.55821 1.20387,1.20386 -6.320269,5.41737 -6.320269,5.41737 -12.640544,0 -17.827975,1.33448 -17.827975,1.33448 -2.892048,0.082 -12.484361,17.73371 -12.484361,17.73371 -1.231531,1.28944 -2.918847,1.94904 -3.237737,2.02111 -11.15105,2.52004 -14.231087,-5.27836 -14.231087,-5.27836 z"
                   id="path925"
                   inkscape:connector-curvature="0"
                   sodipodi:nodetypes="ccccccccscc" />
                <path
                   sodipodi:nodetypes="ccccccccscc"
                   inkscape:connector-curvature="0"
                   id="path927"
                   d="m 50.826718,158.56037 c 5.69987,10.20434 12.526488,1.95184 12.526488,1.95184 5.417376,-7.67461 8.126064,-14.7473 8.126064,-14.7473 2.733122,-5.93527 23.926745,-6.32027 23.926745,-6.32027 2.558205,-0.30096 7.825095,2.55821 7.825095,2.55821 1.20387,1.20386 -6.320269,5.41737 -6.320269,5.41737 -12.640544,0 -17.827975,1.33448 -17.827975,1.33448 -2.892048,0.082 -12.484361,17.73371 -12.484361,17.73371 -1.231531,1.28944 -2.918847,1.94904 -3.237737,2.02111 -11.15105,2.52004 -14.231087,-5.27836 -14.231087,-5.27836 z"
                   style="fill:#74b49b;fill-opacity:1;stroke:none;stroke-width:0.26458332px;stroke-linecap:butt;stroke-linejoin:miter;stroke-opacity:1" />
              </g>
            </g>
          </g>
          <path
             transform="matrix(0.5604311,0,0,0.5604311,-118.43299,36.572537)"
             clip-path="url(#clipPath1148)"
             inkscape:connector-curvature="0"
             id="path1144"
             d="m 156.94132,219.70836 4.4541,3.14407 c 6.81214,-8.12217 7.86017,-17.03036 7.86017,-17.03036 2.62005,-5.76412 11.79025,-13.62429 11.79025,-13.62429 l -8.64619,-13.88629 -14.4103,29.34462 z"
             style="fill:url(#linearGradient1879);fill-opacity:1;stroke:none;stroke-width:0.26458332px;stroke-linecap:butt;stroke-linejoin:miter;stroke-opacity:1;opacity:0.37" />
          <path
             inkscape:connector-curvature="0"
             id="path1160"
             d="m -120.32528,199.23664 c -2.82002,-0.35249 -3.87752,-1.93875 -3.87752,-1.93875 -1.58626,-1.41001 -4.93503,-0.26439 -4.93503,-0.26439 -2.37938,0.96939 -4.93502,0.52876 -4.93502,0.52876 -3.17251,-0.35249 -3.78939,1.76251 -3.78939,1.76251 0.44062,1.85064 8.54816,4.40628 8.54816,4.40628 1.76251,0.52875 4.67065,2.55563 4.67065,2.55563 1.76251,1.14563 3.34877,-3.17252 3.34877,-3.17252 0.96938,-2.64376 2.20313,-3.17251 2.20313,-3.17251 0.3525,-0.61688 -1.23375,-0.70501 -1.23375,-0.70501 z"
             style="fill:#5c8d89;stroke:none;stroke-width:0.09330581px;stroke-linecap:butt;stroke-linejoin:miter;stroke-opacity:1;fill-opacity:1" />
          <path
             sodipodi:nodetypes="ccccccccc"
             inkscape:connector-curvature="0"
             id="path1164"
             d="m -20.038653,144.22354 c 0.01073,-0.96015 0.696873,-1.71678 0.696873,-1.71678 0.491111,-0.95009 0.564836,-2.87843 0.564836,-2.87843 0.575541,-3.67554 5.20395,-0.44036 5.20395,-0.44036 2.352449,1.73769 5.6106162,1.33499 5.6106162,1.33499 4.0029525,-0.0578 4.7774507,5.19841 4.7774507,5.19841 -2.3120359,2.37663 -5.3220669,-0.26281 -5.3220669,-0.26281 -2.004841,-0.31393 -5.378355,1.55417 -5.378355,1.55417 -1.98224,-5.55951 -6.153304,-2.78919 -6.153304,-2.78919 z"
             style="fill:#5c8d89;fill-opacity:1;stroke:none;stroke-width:0.08885644px;stroke-linecap:butt;stroke-linejoin:miter;stroke-opacity:1" />
          <path
             transform="matrix(1.105649,0,0,1.105649,-92.040692,-39.101834)"
             clip-path="url(#clipPath1287)"
             inkscape:connector-curvature="0"
             id="path1283"
             d="m 65.531941,160.63908 c 3.390106,0 4.964083,1.18048 4.964083,1.18048 2.02801,1.51344 5.297039,1.33183 5.297039,1.33183 2.845267,0.12107 4.572193,4.01125 4.572193,4.01125 l 0.785384,-5.40362 -2.451772,-2.66365 -5.690534,-0.8778 -5.811608,-1.69505 z"
             style="opacity:0.4;fill:#a7d7c5;stroke:none;stroke-width:0.26458332px;stroke-linecap:butt;stroke-linejoin:miter;stroke-opacity:1;fill-opacity:1" />
          <path
             transform="matrix(1.105649,0,0,1.105649,-92.040692,-39.101834)"
             clip-path="url(#clipPath1297)"
             inkscape:connector-curvature="0"
             id="path1291"
             d="m -42.015039,214.24439 c 3.016247,3.22866 6.244905,3.99334 6.244905,3.99334 3.526034,1.01958 5.097881,2.03915 5.097881,2.03915 1.911705,1.31696 3.058728,1.74178 3.058728,1.74178 l -1.529364,1.14702 -11.937539,-4.75802 -2.251564,-1.9117 z"
             style="fill:#74b49b;fill-opacity:1;stroke:none;stroke-width:0.26458332px;stroke-linecap:butt;stroke-linejoin:miter;stroke-opacity:1" />
          <path
             transform="matrix(1.105649,0,0,1.105649,-92.040692,-39.101834)"
             clip-path="url(#clipPath1341)"
             inkscape:connector-curvature="0"
             id="path1337"
             d="m -3.3419444,166.24642 c -7.2187536,17.04602 -10.6524486,30.70411 -10.6524486,30.70411 -2.506458,6.89277 -14.689329,21.52949 -14.689329,21.52949 l -13.090584,-13.38349 v -1.04436 l 29.868629,-31.12186 z"
             style="fill:url(#linearGradient1887);fill-opacity:1;stroke:none;stroke-width:0.26458332px;stroke-linecap:butt;stroke-linejoin:miter;stroke-opacity:1;opacity:0.41" />
          <path
             style="fill:url(#linearGradient2084);fill-opacity:1;stroke:none;stroke-width:0.14828072px;stroke-linecap:butt;stroke-linejoin:miter;stroke-opacity:1"
             d="m -86.863556,114.16514 c 0,0 -2.066212,0 -5.017943,-1.09636 0,0 -0.590346,0.67468 0.337341,1.6867 0,0 0.253005,1.26503 -1.475866,1.1807 0,0 -1.855374,-0.84336 -1.518033,-3.79508 0,0 0.04217,-0.29518 -1.644535,-0.84336 0,0 -2.066212,-0.67468 -3.078234,0.21084 0,0 -1.265024,2.27705 -9.108224,1.34134 -6.40945,-1.76301 -6.15644,-5.85327 -6.15644,-5.85327 0,-2.78306 4.30109,-2.10838 4.30109,-2.10838 4.80711,-0.29517 8.13835,-2.86739 8.13835,-2.86739 3.41557,-2.277053 7.505825,-0.42168 7.505825,-0.42168 0.337341,0.1265 1.981877,0.84335 1.981877,0.84335 4.132423,-0.46384 5.017943,2.78306 5.017943,2.78306 2.993898,4.04809 0.716849,8.93953 0.716849,8.93953 z"
             id="path2068"
             inkscape:connector-curvature="0"
             sodipodi:nodetypes="ccccccccccccccc" />
        </g>
      </g>
    </g>
  </g>
</svg>
